<svg width="658" height="404" viewBox="0 0 658 404" fill="none" xmlns="http://www.w3.org/2000/svg">
<path d="M279.801 15.0002C255.019 14.9511 221.311 18.5879 187.071 24.3859C152.893 30.1735 118.977 37.9784 93.859 45.9875C81.203 50.0232 71.403 53.9178 65.034 57.3556C63.229 58.3301 61.918 59.1548 61 59.799V325.85C61.089 325.904 61.877 328.314 67.492 332.978C73.702 338.135 83.269 343.895 95.709 349.77C120.445 361.455 153.96 372.4 187.746 379.728C221.72 387.095 254.567 390.496 278.25 387.986C290.206 386.719 298.295 384.093 302.992 381.009C306.904 378.441 308.133 375.941 308.133 372.364V191.5L323.133 191.499H308.133V17.9074C307.828 17.8073 307.488 17.7035 307.11 17.5959C301.55 16.0102 292.381 15.0251 279.801 15.0002Z" stroke="#2A4D9B" stroke-width="30"/>
<path d="M22.378 136.999C13.949 159.188 10.006 176.528 10 193.713C9.99401 210.964 13.955 228.808 22.467 251.999H43V136.999H22.378Z" fill="#1E1E1E" stroke="#2A4D9B" stroke-width="20"/>
<path d="M635.622 150.999C644.051 173.188 647.994 190.528 648 207.713C648.006 224.964 644.045 242.808 635.533 265.999H615V150.999H635.622Z" fill="#1E1E1E" stroke="#FF8032" stroke-width="20"/>
<path d="M592.31 63.9346L593.443 318.692L465.779 191.98L592.31 63.9346Z" fill="#FF8032" stroke="#FF8032" stroke-width="10"/>
<path d="M69.5531 68.5563L68.2651 335.149L165.964 202.321L69.5531 68.5563Z" fill="#2A4D9B" stroke="#2A4D9B" stroke-width="10"/>
<path d="M288.264 95.5042C281.572 130.951 285.247 159.577 291.561 180.514C295.316 192.968 299.966 202.578 303.777 209.195C303.909 209.424 304.042 209.648 304.172 209.87C300.669 215.407 296.643 223.232 293.324 233.605C287.313 252.392 283.792 278.983 289.284 314.748C247.629 304.582 214 260.971 214 204.999C214 149.484 247.081 106.128 288.264 95.5042Z" fill="#1E1E1E" stroke="#2A4D9B" stroke-width="30"/>
<path d="M310 291.577C302.5 290.837 293.12 288.947 283.927 284.588C274.3 280.023 264.837 272.749 257.669 260.933C250.467 249.06 245 231.64 245 205.895C245 180.13 250.473 163.093 257.562 151.754C264.601 140.496 273.88 133.811 283.37 129.775C292.758 125.783 302.385 124.391 310 124.076V291.577ZM322.668 124.535C322.668 124.535 322.661 124.535 322.651 124.533C322.649 124.533 322.647 124.532 322.645 124.531C322.659 124.533 322.668 124.535 322.668 124.535Z" fill="#1E1E1E" stroke="#1E1E1E" stroke-width="30"/>
<path d="M336.045 13.4049C336.045 -24.4668 613.175 26.9886 613.177 55.8043V326.259L613.164 326.801C611.021 372.76 338.199 445.597 336.058 373.226L336.045 372.365C336.045 347.786 336.039 321.153 336.032 296.534C345.941 297.899 356.089 298.223 366 297.862V290.999H366.031C366.038 316.13 366.044 343.743 366.044 369.336C368.721 370.555 373.874 372.156 382.508 373.071C403.892 375.336 434.946 372.292 468.252 365.069C501.183 357.927 533.571 347.303 557.062 336.207C568.95 330.592 577.26 325.46 582.102 321.439C582.504 321.104 582.862 320.796 583.177 320.515V68.652C577.909 66.2196 570.427 63.361 560.761 60.2789C536.507 52.5451 503.316 44.8844 469.602 39.1754C435.763 33.4453 402.988 29.9529 379.406 29.9996C374.078 30.0102 369.642 30.2047 366.041 30.5055C366.038 53.6211 366.031 89.0516 366.022 121.999H366V119.381C356.085 118.796 345.933 118.834 336.02 119.834L336.045 13.4049Z" fill="#FF8032"/>
<path d="M366 117.999C347.302 117.999 294.5 120.499 276.976 133.499C254 147.499 247 181.486 247 203.499C247 225.512 245.384 256.189 272.5 280.499C287 293.499 347.302 298.499 366 298.499V259.999C355.252 259.999 318.5 274.999 294 259.999C285.031 254.508 282.668 251.927 279 241.999C273.888 228.163 274.5 214.999 274.5 204.499C274.5 195.705 277.583 184.602 281 176.499C284.417 168.396 294.085 160.054 302.5 157.499C330.5 148.999 347 157.499 366 159.999V117.999Z" fill="#FF8032"/>
</svg>
