<svg width="41" height="25" viewBox="0 0 41 25" fill="none" xmlns="http://www.w3.org/2000/svg">
<g clip-path="url(#clip0_529_747)">
<path d="M16.4189 0C18.4453 0 20.0878 0.960988 20.0879 2.9873V5.15527H19.9316C18.2388 5.49324 16.7226 6.36694 15.6416 7.62891C14.5608 8.89072 13.9807 10.4628 14 12.0781C14.0194 13.6937 14.638 15.2542 15.749 16.4932C16.8452 17.7153 18.3552 18.5498 20.0283 18.8623L20.0479 20.4561L20.0459 20.6523C19.9674 22.6656 18.3095 24.2792 16.2715 24.2793C15.2705 24.2793 14.3132 23.8818 13.6074 23.1797L13.4697 23.0352L13.0781 22.6025C11.505 20.8624 8.8095 20.8074 7.16602 22.4385L7.00977 22.6025L6.62695 23.0254C5.90562 23.8233 4.88033 24.2793 3.80469 24.2793C1.70358 24.2793 0.000258709 22.5757 0 20.4746V3.66895C8.15585e-05 1.64268 1.64268 8.07852e-05 3.66895 0C4.83583 0 5.93358 0.555146 6.625 1.49512L6.96875 1.96289L7.11621 2.15137C8.68641 4.03512 11.6411 3.97209 13.1191 1.96289L13.4639 1.49512L13.5977 1.32324C14.2921 0.487765 15.3251 9.92244e-05 16.4189 0Z" fill="#FF8032"/>
<path d="M16.4189 0C18.4453 0 20.0878 0.960988 20.0879 2.9873V5.15527H19.9316C18.2388 5.49324 16.7226 6.36694 15.6416 7.62891C14.5608 8.89072 13.9807 10.4628 14 12.0781C14.0194 13.6937 14.638 15.2542 15.749 16.4932C16.8452 17.7153 18.3552 18.5498 20.0283 18.8623L20.0479 20.4561L20.0459 20.6523C19.9674 22.6656 18.3095 24.2792 16.2715 24.2793C15.2705 24.2793 14.3132 23.8818 13.6074 23.1797L13.4697 23.0352L13.0781 22.6025C11.505 20.8624 8.8095 20.8074 7.16602 22.4385L7.00977 22.6025L6.62695 23.0254C5.90562 23.8233 4.88033 24.2793 3.80469 24.2793C1.70358 24.2793 0.000258709 22.5757 0 20.4746V3.66895C8.15585e-05 1.64268 1.64268 8.07852e-05 3.66895 0C4.83583 0 5.93358 0.555146 6.625 1.49512L6.96875 1.96289L7.11621 2.15137C8.68641 4.03512 11.6411 3.97209 13.1191 1.96289L13.4639 1.49512L13.5977 1.32324C14.2921 0.487765 15.3251 9.92244e-05 16.4189 0Z" fill="#FF8032"/>
</g>
<defs>
<clipPath id="clip0_529_747">
<rect width="40.5" height="24.333" fill="white"/>
</clipPath>
</defs>
</svg>
