<svg width="888" height="278" viewBox="0 0 888 278" fill="none" xmlns="http://www.w3.org/2000/svg">
<path d="M199.5 219.7C186.3 219.7 174.4 217.1 163.8 211.9C153.4 206.7 145.2 198.6 139.2 187.6C133.4 176.4 130.5 162.3 130.5 145.3V54.4H187.5V136C187.5 148.6 189.8 157.6 194.4 163C199.2 168.4 205.9 171.1 214.5 171.1C220.1 171.1 225.2 169.8 229.8 167.2C234.4 164.6 238.1 160.5 240.9 154.9C243.7 149.1 245.1 141.7 245.1 132.7V54.4H313.8C266.8 88.5 259.8 167.5 309.8 211H246.3L247.8 171.1L258.3 184C252.7 196 244.6 205 234 211C223.4 216.8 211.9 219.7 199.5 219.7Z" fill="#FF8032"/>
<path d="M373.6 277.9C358 277.9 343.1 276.1 328.9 272.5C314.9 268.9 302.9 263.6 292.9 256.6L313.6 216.7C320.4 222.1 328.8 226.3 338.8 229.3C349 232.5 358.9 234.1 368.5 234.1C383.9 234.1 395 230.7 401.8 223.9C408.6 217.3 412 207.6 412 194.8V175.6L415 130L414.7 84.1L415 41L469 54.4V187.3C469 218.1 460.7 240.9 444.1 255.7C427.5 270.5 404 277.9 373.6 277.9ZM363.7 208.6C349.3 208.6 336 205.4 323.8 199C311.8 192.4 302.1 183.3 294.7 171.7C287.5 159.9 283.9 146 283.9 130C283.9 114 287.5 100.2 294.7 88.6C302.1 76.8 311.8 67.7 323.8 61.3C336 54.9 349.3 51.7 363.7 51.7C377.5 51.7 389.3 54.5 399.1 60.1C408.9 65.5 416.3 74 421.3 85.6C426.5 97.2 429.1 112 429.1 130C429.1 148 426.5 162.8 421.3 174.4C416.3 186 408.9 194.6 399.1 200.2C389.3 205.8 377.5 208.6 363.7 208.6ZM377.2 163.3C384 163.3 390 161.9 395.2 159.1C400.6 156.3 404.8 152.4 407.8 147.4C411 142.4 412.6 136.6 412.6 130C412.6 123.4 411 117.6 407.8 112.6C404.8 107.6 400.6 103.8 395.2 101.2C390 98.4 384 97 377.2 97C370.4 97 364.3 98.4 358.9 101.2C353.5 103.8 349.2 107.6 346 112.6C343 117.6 341.5 123.4 341.5 130C341.5 136.6 343 142.4 346 147.4C349.2 152.4 353.5 156.3 358.9 159.1C364.3 161.9 370.4 163.3 377.2 163.3Z" fill="#2A4D9B"/>
<path d="M477.8 220.3V55L532.1 38V103L521.3 90.1C527.3 78.5 535.5 69.8 545.9 64C556.3 58 567.9 55 580.7 55C595.3 55 608.1 58.8 619.1 66.4C630.3 73.8 637.8 85.4 641.6 101.2L623 97.3C628.8 84.1 637.5 73.8 649.1 66.4C660.9 58.8 674.4 55 689.6 55C702.2 55 713.4 57.6 723.2 62.8C733.2 67.8 741 75.6 746.6 86.2C752.4 96.8 755.3 110.5 755.3 127.3C755.3 127.3 755.3 141.47 755.3 150.55C755.3 159.63 755.3 164.72 755.3 173.8C755.3 182.88 755.3 187.97 755.3 197.05C755.3 206.13 755.3 220.3 755.3 220.3H698.3V136.6C698.3 125 696.1 116.6 691.7 111.4C687.3 106 681.3 103.3 673.7 103.3C668.3 103.3 663.4 104.6 659 107.2C654.6 109.8 651.2 113.8 648.8 119.2C646.4 124.4 645.2 131.2 645.2 139.6V220.3H588.2V136.6C588.2 125 586 116.6 581.6 111.4C577.4 106 571.4 103.3 563.6 103.3C558 103.3 553 104.6 548.6 107.2C544.4 109.8 541 113.8 538.4 119.2C536 124.4 534.8 131.2 534.8 139.6V220.3H477.8Z" fill="#2A4D9B"/>
<path d="M64.5 210V47.1H0V0H188.1V47.1H123.9V210H64.5Z" fill="#2A4D9B"/>
<path d="M834.1 213.3V183L830.2 175.5V119.7C830.2 110.7 827.4 103.8 821.8 99C816.4 94 807.7 91.5 795.7 91.5C787.9 91.5 780 92.8 772 95.4C764 97.8 764.1 99.4 758.5 103.8C752.988 82.754 745.004 75.488 735 66.3C744.2 60.3 752.6 56.3 765.4 53.1C778.4 49.7 791.3 48 804.1 48C830.5 48 850.9 54.1 865.3 66.3C879.9 78.3 887.2 97.2 887.2 123V213.3H834.1ZM786.1 216C773.1 216 762.1 213.8 753.1 209.4C744.1 205 737.2 199 732.4 191.4C727.8 183.8 725.5 175.3 725.5 165.9C725.5 155.9 728 147.3 733 140.1C738.2 132.7 746.1 127.1 756.7 123.3C767.3 119.3 781 117.3 797.8 117.3H836.2V147H805.6C796.4 147 789.9 148.5 786.1 151.5C782.5 154.5 780.7 158.5 780.7 163.5C780.7 168.5 782.6 172.5 786.4 175.5C790.2 178.5 795.4 180 802 180C808.2 180 813.8 178.5 818.8 175.5C824 172.3 827.8 167.5 830.2 161.1L838 182.1C835 193.3 829.1 201.8 820.3 207.6C811.7 213.2 800.3 216 786.1 216Z" fill="#FF8032"/>
</svg>
