<svg width="173" height="55" viewBox="0 0 173 55" fill="none" xmlns="http://www.w3.org/2000/svg">
<path d="M38.8889 42.8264C36.3158 42.8264 33.9961 42.3196 31.9298 41.3059C29.9025 40.2923 28.3041 38.7134 27.1345 36.5691C26.0039 34.3859 25.4386 31.6373 25.4386 28.3235V10.6042H36.5497V26.5107C36.5497 28.9668 36.998 30.7212 37.8947 31.7738C38.8304 32.8264 40.1364 33.3527 41.8128 33.3527C42.9045 33.3527 43.8986 33.0993 44.7953 32.5925C45.692 32.0857 46.4132 31.2865 46.959 30.1949C47.5048 29.0643 47.7777 27.6218 47.7777 25.8674V10.6042H61.1695C52.0077 17.2514 50.6432 32.651 60.3898 41.1305H48.0117L48.3041 33.3527L50.3508 35.8674C49.2592 38.2065 47.6803 39.9609 45.614 41.1305C43.5477 42.2611 41.306 42.8264 38.8889 42.8264Z" fill="#FF8032"/>
<path d="M72.8264 54.1715C69.7855 54.1715 66.881 53.8206 64.113 53.1188C61.3839 52.4171 59.0448 51.384 57.0954 50.0194L61.1305 42.2417C62.4561 43.2943 64.0935 44.113 66.0428 44.6978C68.0311 45.3216 69.9609 45.6335 71.8323 45.6335C74.8342 45.6335 76.9979 44.9707 78.3235 43.6452C79.649 42.3586 80.3118 40.4678 80.3118 37.9727V34.23L80.8966 25.3411L80.8381 16.3938L80.8966 7.99219L91.4229 10.6043V36.5107C91.4229 42.5146 89.8049 46.959 86.5691 49.844C83.3332 52.729 78.7523 54.1715 72.8264 54.1715ZM70.8966 40.6627C68.0896 40.6627 65.497 40.0389 63.1188 38.7914C60.7797 37.5048 58.8888 35.731 57.4463 33.4698C56.0428 31.1696 55.3411 28.46 55.3411 25.3411C55.3411 22.2222 56.0428 19.5322 57.4463 17.271C58.8888 14.9708 60.7797 13.1969 63.1188 11.9493C65.497 10.7018 68.0896 10.078 70.8966 10.078C73.5866 10.078 75.8868 10.6238 77.7972 11.7154C79.7075 12.768 81.15 14.425 82.1246 16.6862C83.1383 18.9474 83.6451 21.8324 83.6451 25.3411C83.6451 28.8499 83.1383 31.7349 82.1246 33.9961C81.15 36.2573 79.7075 37.9337 77.7972 39.0253C75.8868 40.1169 73.5866 40.6627 70.8966 40.6627ZM73.5282 31.8323C74.8537 31.8323 76.0233 31.5594 77.0369 31.0136C78.0896 30.4678 78.9083 29.7076 79.4931 28.7329C80.1168 27.7583 80.4287 26.6277 80.4287 25.3411C80.4287 24.0546 80.1168 22.924 79.4931 21.9493C78.9083 20.9747 78.0896 20.2339 77.0369 19.7271C76.0233 19.1813 74.8537 18.9084 73.5282 18.9084C72.2026 18.9084 71.0135 19.1813 69.9609 19.7271C68.9083 20.2339 68.0701 20.9747 67.4463 21.9493C66.8615 22.924 66.5691 24.0546 66.5691 25.3411C66.5691 26.6277 66.8615 27.7583 67.4463 28.7329C68.0701 29.7076 68.9083 30.4678 69.9609 31.0136C71.0135 31.5594 72.2026 31.8323 73.5282 31.8323Z" fill="white"/>
<path d="M93.1383 42.9433V23.304V13.4843V10.7212L103.723 7.40735V20.0779L101.618 17.5633C102.787 15.3021 104.386 13.6062 106.413 12.4756C108.44 11.306 110.702 10.7212 113.197 10.7212C116.043 10.7212 118.538 11.4619 120.682 12.9434C122.865 14.3859 124.327 16.6471 125.068 19.727L121.442 18.9668C122.573 16.3937 124.269 14.3859 126.53 12.9434C128.83 11.4619 131.462 10.7212 134.425 10.7212C136.881 10.7212 139.064 11.228 140.974 12.2416C142.924 13.2163 144.444 14.7368 145.536 16.803C146.666 18.8693 147.232 21.5399 147.232 24.8147C147.232 24.8147 147.232 27.577 147.232 29.3469C147.232 31.1168 147.232 32.1091 147.232 33.879C147.232 35.649 147.232 36.6413 147.232 38.4112C147.232 40.1811 147.232 42.9433 147.232 42.9433H136.121V26.6276C136.121 24.3664 135.692 22.729 134.834 21.7153C133.976 20.6627 132.807 20.1364 131.325 20.1364C130.273 20.1364 129.318 20.3898 128.46 20.8966C127.602 21.4034 126.939 22.1831 126.472 23.2358C126.004 24.2494 125.77 25.575 125.77 27.2124V42.9433H114.659V26.6276C114.659 24.3664 114.23 22.729 113.372 21.7153C112.553 20.6627 111.384 20.1364 109.863 20.1364C108.772 20.1364 107.797 20.3898 106.939 20.8966C106.121 21.4034 105.458 22.1831 104.951 23.2358C104.483 24.2494 104.249 25.575 104.249 27.2124V42.9433H93.1383Z" fill="white"/>
<path d="M162.67 33.3917C162.67 38.5593 157.696 42.7484 151.559 42.7484C145.423 42.7484 141.423 38.265 141.033 33.3917C140.545 30.2728 141.715 22.9629 151.559 22.9629C157.696 22.9629 162.67 28.2242 162.67 33.3917Z" fill="#2A4D9B"/>
<path d="M12.5731 40.9356V9.18127H0V0H36.6666V9.18127H24.152V40.9356H12.5731Z" fill="white"/>
<path d="M162.592 41.5788V35.6724L161.832 34.2104V23.3333C161.832 21.5789 161.286 20.2339 160.195 19.2982C159.142 18.3235 157.446 17.8362 155.107 17.8362C153.586 17.8362 152.046 18.0896 150.487 18.5964C148.928 19.0643 148.947 19.3761 147.855 20.2338C146.781 16.1312 145.225 14.7149 143.275 12.9239C145.068 11.7543 146.705 10.9746 149.2 10.3508C151.735 9.68807 154.249 9.35669 156.744 9.35669C161.891 9.35669 165.867 10.5458 168.674 12.9239C171.52 15.2631 172.943 18.9473 172.943 23.9765V41.5788H162.592ZM153.236 42.1052C150.701 42.1052 148.557 41.6763 146.803 40.8186C145.048 39.9609 143.703 38.7913 142.768 37.3098C141.871 35.8284 141.423 34.1715 141.423 32.3391C141.423 30.3898 141.91 28.7134 142.885 27.3099C143.898 25.8674 145.438 24.7758 147.505 24.035C149.571 23.2553 152.241 22.8654 155.516 22.8654H163.002V28.6549H157.037C155.243 28.6549 153.976 28.9473 153.236 29.5321C152.534 30.1169 152.183 30.8966 152.183 31.8713C152.183 32.8459 152.553 33.6256 153.294 34.2104C154.035 34.7952 155.048 35.0876 156.335 35.0876C157.544 35.0876 158.635 34.7952 159.61 34.2104C160.623 33.5867 161.364 32.651 161.832 31.4034L163.353 35.497C162.768 37.6802 161.618 39.3371 159.902 40.4677C158.226 41.5594 156.004 42.1052 153.236 42.1052Z" fill="#FF8032"/>
</svg>
