<svg width="192" height="61" viewBox="0 0 192 61" fill="none" xmlns="http://www.w3.org/2000/svg">
<path d="M43.1741 47.5454C40.3174 47.5454 37.7422 46.9828 35.4482 45.8574C33.1975 44.7321 31.4229 42.9792 30.1245 40.5986C28.8693 38.1748 28.2417 35.1234 28.2417 31.4445V11.7727H40.5771V29.4318C40.5771 32.1586 41.0749 34.1063 42.0704 35.2749C43.1091 36.4435 44.5591 37.0279 46.4202 37.0279C47.6321 37.0279 48.7358 36.7465 49.7313 36.1839C50.7268 35.6212 51.5275 34.7339 52.1335 33.522C52.7394 32.2668 53.0424 30.6654 53.0424 28.7177V11.7727H67.9099C57.7385 19.1523 56.2237 36.2488 67.0442 45.6627H53.3021L53.6267 37.0279L55.899 39.8196C54.6871 42.4165 52.9342 44.3642 50.6403 45.6627C48.3463 46.9179 45.8576 47.5454 43.1741 47.5454Z" fill="#FF8032"/>
<path d="M80.8513 60.1406C77.4753 60.1406 74.2508 59.7511 71.1777 58.972C68.148 58.1929 65.551 57.046 63.3869 55.5311L67.8666 46.8963C69.3382 48.0649 71.1561 48.9738 73.3202 49.6231C75.5276 50.3156 77.67 50.6618 79.7476 50.6618C83.0803 50.6618 85.4825 49.926 86.9541 48.4544C88.4257 47.0261 89.1615 44.9269 89.1615 42.1569V38.0018L89.8107 28.1334L89.7458 18.2001L89.8107 8.87278L101.497 11.7727V40.5338C101.497 47.1992 99.7007 52.1334 96.1083 55.3363C92.5159 58.5392 87.4302 60.1406 80.8513 60.1406ZM78.7088 45.1433C75.5925 45.1433 72.7142 44.4508 70.074 43.0658C67.4771 41.6375 65.3779 39.6681 63.7764 37.1578C62.2183 34.6041 61.4392 31.596 61.4392 28.1334C61.4392 24.6708 62.2183 21.6844 63.7764 19.174C65.3779 16.6203 67.4771 14.651 70.074 13.266C72.7142 11.8809 75.5925 11.1884 78.7088 11.1884C81.6953 11.1884 84.2489 11.7944 86.3698 13.0063C88.4906 14.1749 90.0921 16.0144 91.1741 18.5248C92.2994 21.0351 92.8621 24.238 92.8621 28.1334C92.8621 32.0288 92.2994 35.2317 91.1741 37.7421C90.0921 40.2524 88.4906 42.1136 86.3698 43.3255C84.2489 44.5374 81.6953 45.1433 78.7088 45.1433ZM81.6304 35.3399C83.102 35.3399 84.4004 35.0369 85.5258 34.431C86.6944 33.825 87.6033 32.981 88.2526 31.899C88.9451 30.8169 89.2913 29.5617 89.2913 28.1334C89.2913 26.7051 88.9451 25.4499 88.2526 24.3679C87.6033 23.2858 86.6944 22.4634 85.5258 21.9008C84.4004 21.2948 83.102 20.9919 81.6304 20.9919C80.1588 20.9919 78.8387 21.2948 77.67 21.9008C76.5014 22.4634 75.5709 23.2858 74.8783 24.3679C74.2291 25.4499 73.9045 26.7051 73.9045 28.1334C73.9045 29.5617 74.2291 30.8169 74.8783 31.899C75.5709 32.981 76.5014 33.825 77.67 34.431C78.8387 35.0369 80.1588 35.3399 81.6304 35.3399Z" fill="#2A4D9B"/>
<path d="M103.401 47.6754V25.8719V14.9702V11.9026L115.152 8.22363V22.2904L112.815 19.4987C114.114 16.9883 115.888 15.1055 118.139 13.8503C120.39 12.5519 122.9 11.9026 125.67 11.9026C128.83 11.9026 131.6 12.725 133.98 14.3697C136.404 15.9712 138.027 18.4815 138.85 21.9008L134.824 21.0568C136.079 18.2002 137.962 15.9712 140.473 14.3697C143.026 12.725 145.948 11.9026 149.237 11.9026C151.964 11.9026 154.388 12.4653 156.509 13.5906C158.673 14.6727 160.361 16.3607 161.573 18.6547C162.828 20.9486 163.455 23.9134 163.455 27.5492C163.455 27.5492 163.455 30.6158 163.455 32.5807C163.455 34.5457 163.455 35.6473 163.455 37.6123C163.455 39.5772 163.455 40.6789 163.455 42.6438C163.455 44.6088 163.455 47.6754 163.455 47.6754H151.12V29.5618C151.12 27.0514 150.644 25.2336 149.692 24.1082C148.74 22.9396 147.441 22.3553 145.796 22.3553C144.628 22.3553 143.567 22.6366 142.615 23.1993C141.663 23.762 140.927 24.6276 140.408 25.7962C139.888 26.9216 139.629 28.3932 139.629 30.211V47.6754H127.293V29.5618C127.293 27.0514 126.817 25.2336 125.865 24.1082C124.956 22.9396 123.657 22.3553 121.969 22.3553C120.758 22.3553 119.675 22.6366 118.723 23.1993C117.814 23.762 117.079 24.6276 116.516 25.7962C115.997 26.9216 115.737 28.3932 115.737 30.211V47.6754H103.401Z" fill="#2A4D9B"/>
<path d="M180.595 37.0711C180.595 42.8081 175.072 47.4589 168.26 47.4589C161.447 47.4589 157.006 42.4814 156.573 37.0711C156.032 33.6086 157.331 25.4931 168.26 25.4931C175.072 25.4931 180.595 31.3341 180.595 37.0711Z" fill="white"/>
<path d="M13.9585 45.4463V10.1929H0V-9.15527e-05H40.7069V10.1929H26.8134V45.4463H13.9585Z" fill="#2A4D9B"/>
<path d="M180.509 46.1604V39.6032L179.665 37.9801V25.9043C179.665 23.9566 179.059 22.4634 177.847 21.4246C176.678 20.3426 174.795 19.8015 172.198 19.8015C170.51 19.8015 168.801 20.0829 167.069 20.6455C165.338 21.1649 165.36 21.5111 164.148 22.4633C162.955 17.9087 161.227 16.3362 159.062 14.348C161.053 13.0495 162.871 12.1839 165.641 11.4913C168.455 10.7555 171.246 10.3876 174.016 10.3876C179.73 10.3876 184.144 11.7078 187.261 14.348C190.42 16.9449 192 21.0351 192 26.6185V46.1604H180.509ZM170.121 46.7447C167.308 46.7447 164.927 46.2686 162.979 45.3164C161.032 44.3642 159.538 43.0657 158.5 41.421C157.504 39.7763 157.006 37.9368 157.006 35.9025C157.006 33.7384 157.547 31.8773 158.629 30.3191C159.755 28.7177 161.464 27.5058 163.758 26.6834C166.052 25.8178 169.017 25.3849 172.653 25.3849H180.963V31.8123H174.341C172.35 31.8123 170.943 32.137 170.121 32.7862C169.342 33.4354 168.952 34.3011 168.952 35.3831C168.952 36.4652 169.363 37.3308 170.186 37.9801C171.008 38.6293 172.133 38.9539 173.562 38.9539C174.904 38.9539 176.115 38.6293 177.198 37.9801C178.323 37.2876 179.145 36.2488 179.665 34.8637L181.353 39.4084C180.703 41.8322 179.427 43.6717 177.522 44.9269C175.661 46.1388 173.194 46.7447 170.121 46.7447Z" fill="#FF8032"/>
<path d="M133.672 53.1469L132.461 57.7816H131.631L130.857 55.0046C130.838 54.937 130.817 54.8567 130.794 54.7637C130.77 54.6707 130.747 54.5756 130.724 54.4784C130.703 54.3812 130.684 54.2924 130.667 54.2121C130.652 54.1297 130.641 54.0663 130.635 54.0219C130.631 54.0663 130.621 54.1286 130.607 54.2089C130.592 54.2892 130.574 54.378 130.553 54.4752C130.534 54.5703 130.513 54.6654 130.489 54.7605C130.466 54.8535 130.445 54.9359 130.426 55.0078L129.665 57.7816H128.838L127.63 53.1469H128.394L129.063 55.8637C129.084 55.9503 129.105 56.0444 129.126 56.1458C129.149 56.2452 129.171 56.3456 129.19 56.447C129.211 56.5484 129.23 56.6478 129.247 56.745C129.264 56.8401 129.277 56.9267 129.288 57.0049C129.298 56.9246 129.312 56.8359 129.329 56.7386C129.346 56.6393 129.364 56.5389 129.383 56.4375C129.404 56.3339 129.425 56.2346 129.446 56.1395C129.47 56.0444 129.493 55.9588 129.516 55.8827L130.271 53.1469H131.012L131.783 55.8922C131.806 55.9704 131.828 56.0581 131.849 56.1553C131.873 56.2526 131.895 56.3519 131.916 56.4533C131.937 56.5548 131.956 56.653 131.973 56.7482C131.99 56.8433 132.004 56.9288 132.014 57.0049C132.029 56.9014 132.048 56.783 132.071 56.6499C132.094 56.5167 132.121 56.3815 132.15 56.2441C132.18 56.1067 132.21 55.9799 132.239 55.8637L132.905 53.1469H133.672Z" fill="#FF8032"/>
<path d="M135.646 52.8489V54.0884C135.646 54.2174 135.642 54.3431 135.634 54.4657C135.627 54.5883 135.62 54.6834 135.612 54.751H135.653C135.727 54.6284 135.818 54.528 135.925 54.4498C136.033 54.3695 136.154 54.3093 136.287 54.2691C136.422 54.229 136.566 54.2089 136.718 54.2089C136.986 54.2089 137.215 54.2544 137.403 54.3452C137.591 54.434 137.734 54.5724 137.834 54.7605C137.935 54.9486 137.986 55.1927 137.986 55.4928V57.7816H137.241V55.6323C137.241 55.3597 137.185 55.1557 137.073 55.0205C136.961 54.8831 136.788 54.8144 136.553 54.8144C136.327 54.8144 136.147 54.862 136.014 54.9571C135.883 55.05 135.789 55.1885 135.732 55.3723C135.675 55.5541 135.646 55.776 135.646 56.0381V57.7816H134.901V52.8489H135.646Z" fill="#FF8032"/>
<path d="M141.076 54.2057C141.389 54.2057 141.657 54.2702 141.881 54.3991C142.105 54.528 142.278 54.7108 142.398 54.9475C142.519 55.1842 142.579 55.4674 142.579 55.7971V56.1966H140.236C140.244 56.5368 140.335 56.7989 140.509 56.9827C140.684 57.1666 140.929 57.2585 141.244 57.2585C141.468 57.2585 141.669 57.2374 141.846 57.1951C142.026 57.1508 142.211 57.0863 142.401 57.0018V57.6072C142.226 57.6897 142.047 57.7499 141.865 57.7879C141.684 57.826 141.466 57.845 141.212 57.845C140.868 57.845 140.565 57.7784 140.303 57.6453C140.043 57.51 139.839 57.3093 139.691 57.043C139.545 56.7767 139.472 56.4459 139.472 56.0507C139.472 55.6576 139.539 55.3237 139.672 55.049C139.805 54.7742 139.992 54.565 140.233 54.4213C140.474 54.2776 140.755 54.2057 141.076 54.2057ZM141.076 54.7668C140.842 54.7668 140.651 54.8429 140.506 54.9951C140.362 55.1473 140.277 55.3702 140.252 55.664H141.85C141.848 55.4886 141.818 55.3332 141.761 55.198C141.706 55.0627 141.621 54.9571 141.507 54.881C141.395 54.8049 141.252 54.7668 141.076 54.7668Z" fill="#FF8032"/>
<path d="M145.846 54.2057C145.906 54.2057 145.97 54.2089 146.04 54.2153C146.11 54.2216 146.17 54.23 146.221 54.2406L146.151 54.938C146.106 54.9254 146.051 54.9158 145.986 54.9095C145.923 54.9032 145.865 54.9 145.815 54.9C145.682 54.9 145.555 54.9222 145.434 54.9666C145.314 55.0088 145.207 55.0743 145.114 55.1631C145.021 55.2498 144.948 55.3586 144.895 55.4896C144.843 55.6207 144.816 55.7728 144.816 55.9461V57.7816H144.068V54.2723H144.651L144.753 54.8905H144.788C144.857 54.7658 144.944 54.6517 145.048 54.5481C145.151 54.4446 145.27 54.3621 145.403 54.3008C145.538 54.2374 145.686 54.2057 145.846 54.2057Z" fill="#FF8032"/>
<path d="M148.918 54.2057C149.23 54.2057 149.499 54.2702 149.723 54.3991C149.947 54.528 150.119 54.7108 150.24 54.9475C150.36 55.1842 150.42 55.4674 150.42 55.7971V56.1966H148.078C148.086 56.5368 148.177 56.7989 148.35 56.9827C148.526 57.1666 148.771 57.2585 149.086 57.2585C149.31 57.2585 149.51 57.2374 149.688 57.1951C149.868 57.1508 150.053 57.0863 150.243 57.0018V57.6072C150.067 57.6897 149.889 57.7499 149.707 57.7879C149.525 57.826 149.308 57.845 149.054 57.845C148.709 57.845 148.406 57.7784 148.144 57.6453C147.884 57.51 147.68 57.3093 147.532 57.043C147.386 56.7767 147.314 56.4459 147.314 56.0507C147.314 55.6576 147.38 55.3237 147.513 55.049C147.646 54.7742 147.833 54.565 148.074 54.4213C148.315 54.2776 148.596 54.2057 148.918 54.2057ZM148.918 54.7668C148.683 54.7668 148.493 54.8429 148.347 54.9951C148.203 55.1473 148.119 55.3702 148.093 55.664H149.691C149.689 55.4886 149.659 55.3332 149.602 55.198C149.547 55.0627 149.463 54.9571 149.349 54.881C149.237 54.8049 149.093 54.7668 148.918 54.7668Z" fill="#FF8032"/>
<path d="M155.643 54.2057C155.956 54.2057 156.224 54.2702 156.448 54.3991C156.673 54.528 156.845 54.7108 156.965 54.9475C157.086 55.1842 157.146 55.4674 157.146 55.7971V56.1966H154.803C154.812 56.5368 154.903 56.7989 155.076 56.9827C155.251 57.1666 155.496 57.2585 155.811 57.2585C156.035 57.2585 156.236 57.2374 156.414 57.1951C156.593 57.1508 156.778 57.0863 156.968 57.0018V57.6072C156.793 57.6897 156.614 57.7499 156.433 57.7879C156.251 57.826 156.033 57.845 155.78 57.845C155.435 57.845 155.132 57.7784 154.87 57.6453C154.61 57.51 154.406 57.3093 154.258 57.043C154.112 56.7767 154.039 56.4459 154.039 56.0507C154.039 55.6576 154.106 55.3237 154.239 55.049C154.372 54.7742 154.559 54.565 154.8 54.4213C155.041 54.2776 155.322 54.2057 155.643 54.2057ZM155.643 54.7668C155.409 54.7668 155.219 54.8429 155.073 54.9951C154.929 55.1473 154.844 55.3702 154.819 55.664H156.417C156.415 55.4886 156.385 55.3332 156.328 55.198C156.273 55.0627 156.189 54.9571 156.074 54.881C155.962 54.8049 155.819 54.7668 155.643 54.7668Z" fill="#FF8032"/>
<path d="M160.464 54.2057C160.86 54.2057 161.167 54.3082 161.387 54.5132C161.609 54.7161 161.72 55.0426 161.72 55.4928V57.7816H160.975V55.6323C160.975 55.3597 160.919 55.1557 160.807 55.0205C160.695 54.8831 160.521 54.8144 160.287 54.8144C159.947 54.8144 159.71 54.919 159.577 55.1282C159.446 55.3375 159.38 55.6407 159.38 56.0381V57.7816H158.635V54.2723H159.215L159.32 54.7478H159.361C159.437 54.6253 159.531 54.5249 159.643 54.4467C159.757 54.3664 159.884 54.3061 160.024 54.266C160.165 54.2258 160.312 54.2057 160.464 54.2057Z" fill="#FF8032"/>
<path d="M164.591 57.845C164.173 57.845 163.837 57.6928 163.583 57.3885C163.332 57.0821 163.206 56.6309 163.206 56.0349C163.206 55.4326 163.334 54.9771 163.589 54.6686C163.847 54.36 164.186 54.2057 164.607 54.2057C164.785 54.2057 164.94 54.23 165.073 54.2787C165.206 54.3251 165.32 54.3886 165.415 54.4689C165.513 54.5492 165.595 54.639 165.663 54.7383H165.698C165.687 54.6728 165.674 54.5788 165.659 54.4562C165.647 54.3315 165.64 54.2163 165.64 54.1106V52.8489H166.389V57.7816H165.805L165.672 57.3029H165.64C165.577 57.4044 165.497 57.4963 165.4 57.5787C165.304 57.659 165.19 57.7235 165.057 57.7721C164.926 57.8207 164.771 57.845 164.591 57.845ZM164.8 57.2395C165.12 57.2395 165.345 57.1476 165.476 56.9637C165.607 56.7799 165.674 56.5041 165.679 56.1363V56.0381C165.679 55.645 165.615 55.3438 165.488 55.1346C165.362 54.9232 165.13 54.8176 164.794 54.8176C164.526 54.8176 164.321 54.9264 164.179 55.1441C164.04 55.3597 163.97 55.6608 163.97 56.0476C163.97 56.4343 164.04 56.7302 164.179 56.9352C164.321 57.1381 164.528 57.2395 164.8 57.2395Z" fill="#FF8032"/>
<path d="M170.465 56.7799C170.465 57.0102 170.409 57.2046 170.297 57.3631C170.185 57.5217 170.021 57.6421 169.805 57.7245C169.592 57.8048 169.33 57.845 169.019 57.845C168.774 57.845 168.563 57.827 168.385 57.7911C168.21 57.7573 168.044 57.7045 167.887 57.6326V56.9891C168.054 57.0673 168.241 57.1349 168.449 57.192C168.658 57.249 168.855 57.2776 169.041 57.2776C169.286 57.2776 169.463 57.2395 169.571 57.1634C169.679 57.0852 169.732 56.9817 169.732 56.8528C169.732 56.7767 169.71 56.7091 169.666 56.6499C169.624 56.5886 169.543 56.5262 169.425 56.4628C169.309 56.3973 169.138 56.3191 168.911 56.2283C168.689 56.1395 168.502 56.0507 168.35 55.962C168.198 55.8732 168.083 55.7665 168.005 55.6418C167.927 55.515 167.887 55.3533 167.887 55.1568C167.887 54.8461 168.01 54.6105 168.255 54.4498C168.502 54.2871 168.829 54.2057 169.235 54.2057C169.45 54.2057 169.653 54.2279 169.843 54.2723C170.036 54.3146 170.224 54.3769 170.408 54.4593L170.173 55.0205C170.015 54.9507 169.855 54.8937 169.694 54.8493C169.536 54.8028 169.374 54.7795 169.209 54.7795C169.017 54.7795 168.87 54.8091 168.769 54.8683C168.669 54.9275 168.62 55.012 168.62 55.1219C168.62 55.2043 168.644 55.2741 168.693 55.3311C168.741 55.3882 168.825 55.4452 168.943 55.5023C169.064 55.5594 169.23 55.6302 169.444 55.7147C169.653 55.795 169.834 55.8795 169.986 55.9683C170.14 56.055 170.259 56.1617 170.341 56.2885C170.424 56.4153 170.465 56.5791 170.465 56.7799Z" fill="#FF8032"/>
<path d="M178.221 54.2057C178.614 54.2057 178.91 54.3072 179.108 54.5101C179.309 54.713 179.409 55.0384 179.409 55.4865V57.7816H178.664V55.6196C178.664 55.3533 178.613 55.1525 178.509 55.0173C178.406 54.882 178.248 54.8144 178.037 54.8144C177.741 54.8144 177.527 54.9095 177.396 55.0997C177.268 55.2878 177.203 55.5615 177.203 55.9208V57.7816H176.458V55.6196C176.458 55.4421 176.435 55.2941 176.388 55.1758C176.344 55.0553 176.275 54.9655 176.182 54.9063C176.089 54.845 175.972 54.8144 175.83 54.8144C175.625 54.8144 175.462 54.8609 175.339 54.9539C175.219 55.0469 175.132 55.1842 175.079 55.366C175.026 55.5456 175 55.7665 175 56.0285V57.7816H174.255V54.2723H174.835L174.94 54.7447H174.981C175.053 54.6221 175.141 54.5217 175.247 54.4435C175.355 54.3632 175.474 54.304 175.605 54.266C175.736 54.2258 175.873 54.2057 176.014 54.2057C176.276 54.2057 176.497 54.2522 176.677 54.3452C176.856 54.4361 176.991 54.5756 177.079 54.7637H177.136C177.246 54.5735 177.4 54.4329 177.596 54.3421C177.793 54.2512 178.001 54.2057 178.221 54.2057Z" fill="#FF8032"/>
<path d="M182.496 54.2057C182.809 54.2057 183.078 54.2702 183.302 54.3991C183.526 54.528 183.698 54.7108 183.818 54.9475C183.939 55.1842 183.999 55.4674 183.999 55.7971V56.1966H181.656C181.665 56.5368 181.756 56.7989 181.929 56.9827C182.104 57.1666 182.35 57.2585 182.664 57.2585C182.888 57.2585 183.089 57.2374 183.267 57.1951C183.446 57.1508 183.631 57.0863 183.822 57.0018V57.6072C183.646 57.6897 183.468 57.7499 183.286 57.7879C183.104 57.826 182.886 57.845 182.633 57.845C182.288 57.845 181.985 57.7784 181.723 57.6453C181.463 57.51 181.259 57.3093 181.111 57.043C180.965 56.7767 180.892 56.4459 180.892 56.0507C180.892 55.6576 180.959 55.3237 181.092 55.049C181.225 54.7742 181.412 54.565 181.653 54.4213C181.894 54.2776 182.175 54.2057 182.496 54.2057ZM182.496 54.7668C182.262 54.7668 182.072 54.8429 181.926 54.9951C181.782 55.1473 181.698 55.3702 181.672 55.664H183.27C183.268 55.4886 183.238 55.3332 183.181 55.198C183.126 55.0627 183.042 54.9571 182.928 54.881C182.816 54.8049 182.672 54.7668 182.496 54.7668Z" fill="#FF8032"/>
<path d="M186.886 54.2057C187.199 54.2057 187.468 54.2702 187.692 54.3991C187.916 54.528 188.088 54.7108 188.208 54.9475C188.329 55.1842 188.389 55.4674 188.389 55.7971V56.1966H186.046C186.055 56.5368 186.146 56.7989 186.319 56.9827C186.494 57.1666 186.74 57.2585 187.054 57.2585C187.278 57.2585 187.479 57.2374 187.657 57.1951C187.836 57.1508 188.021 57.0863 188.211 57.0018V57.6072C188.036 57.6897 187.857 57.7499 187.676 57.7879C187.494 57.826 187.276 57.845 187.023 57.845C186.678 57.845 186.375 57.7784 186.113 57.6453C185.853 57.51 185.649 57.3093 185.501 57.043C185.355 56.7767 185.282 56.4459 185.282 56.0507C185.282 55.6576 185.349 55.3237 185.482 55.049C185.615 54.7742 185.802 54.565 186.043 54.4213C186.284 54.2776 186.565 54.2057 186.886 54.2057ZM186.886 54.7668C186.652 54.7668 186.462 54.8429 186.316 54.9951C186.172 55.1473 186.088 55.3702 186.062 55.664H187.66C187.658 55.4886 187.628 55.3332 187.571 55.198C187.516 55.0627 187.432 54.9571 187.318 54.881C187.206 54.8049 187.062 54.7668 186.886 54.7668Z" fill="#FF8032"/>
<path d="M191.184 57.2427C191.282 57.2427 191.378 57.2342 191.473 57.2173C191.568 57.1983 191.655 57.1761 191.733 57.1508V57.715C191.65 57.751 191.544 57.7816 191.413 57.807C191.282 57.8323 191.145 57.845 191.004 57.845C190.805 57.845 190.626 57.8122 190.468 57.7467C190.309 57.6791 190.184 57.5639 190.091 57.4012C189.998 57.2385 189.951 57.0134 189.951 56.726V54.8398H189.473V54.5069L189.986 54.2438L190.23 53.4925H190.699V54.2723H191.704V54.8398H190.699V56.7165C190.699 56.894 190.744 57.0261 190.833 57.1127C190.921 57.1994 191.039 57.2427 191.184 57.2427Z" fill="#FF8032"/>
</svg>
