<svg width="174" height="55" viewBox="0 0 174 55" fill="none" xmlns="http://www.w3.org/2000/svg">
<path d="M67.4614 47.8719L66.3706 52.0466H65.6225L64.9258 49.5452C64.9086 49.4843 64.8896 49.412 64.8687 49.3282C64.8477 49.2444 64.8268 49.1588 64.8058 49.0712C64.7868 48.9836 64.7697 48.9037 64.7544 48.8314C64.7411 48.7571 64.7316 48.7 64.7259 48.66C64.7221 48.7 64.7135 48.7562 64.7002 48.8285C64.6869 48.9008 64.6707 48.9808 64.6516 49.0684C64.6345 49.154 64.6155 49.2397 64.5945 49.3253C64.5736 49.4091 64.5546 49.4833 64.5374 49.5481L63.8521 52.0466H63.1068L62.0189 47.8719H62.7071L63.3096 50.319C63.3286 50.3971 63.3477 50.4818 63.3667 50.5732C63.3876 50.6626 63.4067 50.7531 63.4238 50.8444C63.4428 50.9358 63.46 51.0253 63.4752 51.1129C63.4904 51.1985 63.5028 51.2766 63.5123 51.347C63.5218 51.2747 63.5342 51.1947 63.5494 51.1071C63.5647 51.0177 63.5808 50.9272 63.598 50.8359C63.617 50.7426 63.6361 50.6531 63.6551 50.5675C63.676 50.4818 63.697 50.4047 63.7179 50.3362L64.3975 47.8719H65.0657L65.7595 50.3447C65.7805 50.4152 65.8005 50.4942 65.8195 50.5817C65.8405 50.6693 65.8604 50.7588 65.8795 50.8502C65.8985 50.9415 65.9156 51.03 65.9309 51.1157C65.9461 51.2014 65.9585 51.2785 65.968 51.347C65.9813 51.2537 65.9985 51.1471 66.0194 51.0272C66.0403 50.9073 66.0641 50.7854 66.0908 50.6617C66.1174 50.538 66.1441 50.4237 66.1707 50.319L66.7704 47.8719H67.4614Z" fill="#FF8032"/>
<path d="M69.2398 47.6035V48.72C69.2398 48.8361 69.236 48.9494 69.2283 49.0598C69.2226 49.1702 69.216 49.2559 69.2083 49.3168H69.2455C69.3121 49.2064 69.394 49.1159 69.491 49.0455C69.5881 48.9732 69.6966 48.9189 69.8166 48.8828C69.9384 48.8466 70.0678 48.8285 70.2049 48.8285C70.4467 48.8285 70.6522 48.8694 70.8217 48.9513C70.9911 49.0312 71.1205 49.1559 71.21 49.3253C71.3014 49.4948 71.3471 49.7146 71.3471 49.985V52.0466H70.676V50.1106C70.676 49.865 70.6256 49.6813 70.5247 49.5595C70.4238 49.4358 70.2677 49.3739 70.0564 49.3739C69.8527 49.3739 69.6909 49.4167 69.571 49.5024C69.453 49.5861 69.3683 49.7108 69.3169 49.8764C69.2655 50.0402 69.2398 50.24 69.2398 50.4761V52.0466H68.5687V47.6035H69.2398Z" fill="#FF8032"/>
<path d="M74.1306 48.8256C74.4123 48.8256 74.6541 48.8837 74.8558 48.9998C75.0576 49.1159 75.2128 49.2806 75.3213 49.4938C75.4298 49.707 75.484 49.9621 75.484 50.2591V50.6189H73.3739C73.3815 50.9253 73.4633 51.1614 73.6194 51.327C73.7774 51.4926 73.9983 51.5754 74.2819 51.5754C74.4837 51.5754 74.6645 51.5564 74.8244 51.5183C74.9862 51.4783 75.1528 51.4203 75.3241 51.3441V51.8895C75.1661 51.9638 75.0053 52.018 74.8416 52.0523C74.6778 52.0866 74.4818 52.1037 74.2533 52.1037C73.943 52.1037 73.6699 52.0437 73.4338 51.9238C73.1997 51.802 73.016 51.6211 72.8827 51.3813C72.7514 51.1414 72.6857 50.8435 72.6857 50.4875C72.6857 50.1334 72.7457 49.8327 72.8656 49.5852C72.9855 49.3377 73.154 49.1493 73.371 49.0198C73.588 48.8904 73.8412 48.8256 74.1306 48.8256ZM74.1306 49.3311C73.9193 49.3311 73.7479 49.3996 73.6166 49.5366C73.4871 49.6737 73.411 49.8745 73.3881 50.1391H74.8273C74.8254 49.9811 74.7987 49.8412 74.7473 49.7194C74.6978 49.5976 74.6217 49.5024 74.5189 49.4339C74.418 49.3653 74.2886 49.3311 74.1306 49.3311Z" fill="#FF8032"/>
<path d="M78.4274 48.8256C78.4807 48.8256 78.5388 48.8285 78.6016 48.8342C78.6644 48.8399 78.7187 48.8475 78.7644 48.8571L78.7015 49.4853C78.6616 49.4738 78.6121 49.4653 78.5531 49.4596C78.496 49.4538 78.4446 49.451 78.3989 49.451C78.2789 49.451 78.1647 49.471 78.0562 49.5109C77.9477 49.549 77.8516 49.608 77.7678 49.688C77.6841 49.766 77.6184 49.8641 77.5708 49.9821C77.5232 50.1001 77.4994 50.2372 77.4994 50.3933V52.0466H76.8255V48.8856H77.3509L77.4423 49.4424H77.4737C77.5365 49.3301 77.6146 49.2273 77.7079 49.134C77.8011 49.0408 77.9077 48.9665 78.0277 48.9113C78.1495 48.8542 78.2827 48.8256 78.4274 48.8256Z" fill="#FF8032"/>
<path d="M81.1938 48.8256C81.4755 48.8256 81.7173 48.8837 81.9191 48.9998C82.1208 49.1159 82.276 49.2806 82.3845 49.4938C82.493 49.707 82.5473 49.9621 82.5473 50.2591V50.6189H80.4371C80.4447 50.9253 80.5266 51.1614 80.6826 51.327C80.8407 51.4926 81.0615 51.5754 81.3451 51.5754C81.5469 51.5754 81.7277 51.5564 81.8876 51.5183C82.0495 51.4783 82.216 51.4203 82.3873 51.3441V51.8895C82.2293 51.9638 82.0685 52.018 81.9048 52.0523C81.7411 52.0866 81.545 52.1037 81.3166 52.1037C81.0063 52.1037 80.7331 52.0437 80.497 51.9238C80.2629 51.802 80.0792 51.6211 79.9459 51.3813C79.8146 51.1414 79.7489 50.8435 79.7489 50.4875C79.7489 50.1334 79.8089 49.8327 79.9288 49.5852C80.0487 49.3377 80.2172 49.1493 80.4342 49.0198C80.6512 48.8904 80.9044 48.8256 81.1938 48.8256ZM81.1938 49.3311C80.9825 49.3311 80.8111 49.3996 80.6798 49.5366C80.5503 49.6737 80.4742 49.8745 80.4514 50.1391H81.8905C81.8886 49.9811 81.8619 49.8412 81.8105 49.7194C81.7611 49.5976 81.6849 49.5024 81.5821 49.4339C81.4812 49.3653 81.3518 49.3311 81.1938 49.3311Z" fill="#FF8032"/>
<path d="M87.2519 48.8256C87.5336 48.8256 87.7754 48.8837 87.9772 48.9998C88.1789 49.1159 88.3341 49.2806 88.4426 49.4938C88.5511 49.707 88.6054 49.9621 88.6054 50.2591V50.6189H86.4952C86.5028 50.9253 86.5847 51.1614 86.7408 51.327C86.8988 51.4926 87.1196 51.5754 87.4032 51.5754C87.605 51.5754 87.7858 51.5564 87.9457 51.5183C88.1076 51.4783 88.2741 51.4203 88.4454 51.3441V51.8895C88.2874 51.9638 88.1266 52.018 87.9629 52.0523C87.7992 52.0866 87.6031 52.1037 87.3747 52.1037C87.0644 52.1037 86.7912 52.0437 86.5551 51.9238C86.321 51.802 86.1373 51.6211 86.004 51.3813C85.8727 51.1414 85.807 50.8435 85.807 50.4875C85.807 50.1334 85.867 49.8327 85.9869 49.5852C86.1068 49.3377 86.2753 49.1493 86.4923 49.0198C86.7093 48.8904 86.9625 48.8256 87.2519 48.8256ZM87.2519 49.3311C87.0406 49.3311 86.8692 49.3996 86.7379 49.5366C86.6084 49.6737 86.5323 49.8745 86.5095 50.1391H87.9486C87.9467 49.9811 87.92 49.8412 87.8687 49.7194C87.8192 49.5976 87.743 49.5024 87.6402 49.4339C87.5393 49.3653 87.4099 49.3311 87.2519 49.3311Z" fill="#FF8032"/>
<path d="M91.5944 48.8256C91.9504 48.8256 92.2274 48.918 92.4254 49.1026C92.6252 49.2854 92.7252 49.5795 92.7252 49.985V52.0466H92.0542V50.1106C92.0542 49.865 92.0037 49.6813 91.9028 49.5595C91.8019 49.4358 91.6458 49.3739 91.4345 49.3739C91.128 49.3739 90.9148 49.4681 90.7949 49.6566C90.6769 49.845 90.6179 50.1182 90.6179 50.4761V52.0466H89.9468V48.8856H90.4694L90.5636 49.3139H90.6007C90.6693 49.2035 90.754 49.1131 90.8549 49.0427C90.9577 48.9703 91.0719 48.9161 91.1975 48.8799C91.3251 48.8437 91.4574 48.8256 91.5944 48.8256Z" fill="#FF8032"/>
<path d="M95.3116 52.1037C94.9347 52.1037 94.632 51.9666 94.4036 51.6925C94.1771 51.4165 94.0638 51.0101 94.0638 50.4732C94.0638 49.9307 94.179 49.5205 94.4093 49.2425C94.6416 48.9646 94.9471 48.8256 95.3259 48.8256C95.4858 48.8256 95.6257 48.8475 95.7457 48.8913C95.8656 48.9332 95.9684 48.9903 96.0541 49.0626C96.1416 49.135 96.2159 49.2159 96.2768 49.3054H96.3082C96.2987 49.2463 96.2873 49.1616 96.2739 49.0512C96.2625 48.9389 96.2568 48.8352 96.2568 48.74V47.6035H96.9307V52.0466H96.4053L96.2853 51.6154H96.2568C96.1997 51.7068 96.1273 51.7896 96.0398 51.8638C95.9541 51.9362 95.8513 51.9942 95.7314 52.038C95.6134 52.0818 95.4734 52.1037 95.3116 52.1037ZM95.5001 51.5583C95.7875 51.5583 95.9903 51.4755 96.1083 51.3099C96.2263 51.1443 96.2873 50.8958 96.2911 50.5646V50.4761C96.2911 50.122 96.2339 49.8507 96.1197 49.6623C96.0055 49.4719 95.7971 49.3767 95.4944 49.3767C95.2526 49.3767 95.068 49.4748 94.9404 49.6709C94.8148 49.865 94.752 50.1363 94.752 50.4847C94.752 50.833 94.8148 51.0995 94.9404 51.2842C95.068 51.4669 95.2545 51.5583 95.5001 51.5583Z" fill="#FF8032"/>
<path d="M100.602 51.1443C100.602 51.3518 100.552 51.5269 100.451 51.6697C100.35 51.8124 100.202 51.9209 100.008 51.9952C99.816 52.0675 99.58 52.1037 99.3001 52.1037C99.0793 52.1037 98.8889 52.0875 98.729 52.0551C98.571 52.0247 98.4216 51.9771 98.2807 51.9124V51.3327C98.4311 51.4032 98.5996 51.4641 98.7861 51.5155C98.9746 51.5669 99.1526 51.5926 99.3201 51.5926C99.5409 51.5926 99.6999 51.5583 99.797 51.4898C99.8941 51.4193 99.9426 51.3261 99.9426 51.2099C99.9426 51.1414 99.9226 51.0805 99.8826 51.0272C99.8446 50.972 99.7722 50.9158 99.6656 50.8587C99.5609 50.7997 99.4067 50.7293 99.203 50.6474C99.0032 50.5675 98.8347 50.4875 98.6976 50.4076C98.5606 50.3276 98.4568 50.2315 98.3864 50.1192C98.3159 50.0049 98.2807 49.8593 98.2807 49.6823C98.2807 49.4024 98.3911 49.1902 98.612 49.0455C98.8347 48.8989 99.1288 48.8256 99.4943 48.8256C99.6885 48.8256 99.8712 48.8456 100.043 48.8856C100.216 48.9237 100.385 48.9798 100.551 49.0541L100.34 49.5595C100.197 49.4967 100.053 49.4453 99.9083 49.4053C99.7656 49.3634 99.6199 49.3425 99.4714 49.3425C99.2982 49.3425 99.1659 49.3691 99.0745 49.4224C98.9851 49.4757 98.9403 49.5519 98.9403 49.6509C98.9403 49.7251 98.9622 49.7879 99.006 49.8393C99.0498 49.8907 99.125 49.9421 99.2316 49.9935C99.3401 50.0449 99.4905 50.1087 99.6828 50.1848C99.8712 50.2572 100.034 50.3333 100.171 50.4133C100.31 50.4913 100.417 50.5875 100.491 50.7017C100.565 50.8159 100.602 50.9634 100.602 51.1443Z" fill="#FF8032"/>
<path d="M107.588 48.8256C107.942 48.8256 108.209 48.917 108.388 49.0998C108.569 49.2825 108.659 49.5757 108.659 49.9792V52.0466H107.988V50.0992C107.988 49.8593 107.941 49.6785 107.848 49.5566C107.755 49.4348 107.613 49.3739 107.423 49.3739C107.156 49.3739 106.964 49.4596 106.846 49.6309C106.73 49.8003 106.672 50.0468 106.672 50.3704V52.0466H106.001V50.0992C106.001 49.9393 105.98 49.806 105.938 49.6994C105.898 49.5909 105.836 49.51 105.752 49.4567C105.669 49.4015 105.563 49.3739 105.435 49.3739C105.251 49.3739 105.103 49.4158 104.993 49.4995C104.884 49.5833 104.806 49.707 104.759 49.8707C104.711 50.0325 104.687 50.2315 104.687 50.4675V52.0466H104.016V48.8856H104.539L104.633 49.3111H104.67C104.735 49.2007 104.815 49.1102 104.91 49.0398C105.007 48.9675 105.115 48.9142 105.233 48.8799C105.351 48.8437 105.473 48.8256 105.601 48.8256C105.837 48.8256 106.036 48.8675 106.198 48.9513C106.36 49.0331 106.48 49.1588 106.56 49.3282H106.612C106.711 49.1569 106.849 49.0303 107.026 48.9484C107.203 48.8666 107.39 48.8256 107.588 48.8256Z" fill="#FF8032"/>
<path d="M111.44 48.8256C111.721 48.8256 111.963 48.8837 112.165 48.9998C112.367 49.1159 112.522 49.2806 112.63 49.4938C112.739 49.707 112.793 49.9621 112.793 50.2591V50.6189H110.683C110.691 50.9253 110.773 51.1614 110.929 51.327C111.087 51.4926 111.307 51.5754 111.591 51.5754C111.793 51.5754 111.974 51.5564 112.134 51.5183C112.295 51.4783 112.462 51.4203 112.633 51.3441V51.8895C112.475 51.9638 112.314 52.018 112.151 52.0523C111.987 52.0866 111.791 52.1037 111.563 52.1037C111.252 52.1037 110.979 52.0437 110.743 51.9238C110.509 51.802 110.325 51.6211 110.192 51.3813C110.061 51.1414 109.995 50.8435 109.995 50.4875C109.995 50.1334 110.055 49.8327 110.175 49.5852C110.295 49.3377 110.463 49.1493 110.68 49.0198C110.897 48.8904 111.15 48.8256 111.44 48.8256ZM111.44 49.3311C111.228 49.3311 111.057 49.3996 110.926 49.5366C110.796 49.6737 110.72 49.8745 110.697 50.1391H112.136C112.135 49.9811 112.108 49.8412 112.057 49.7194C112.007 49.5976 111.931 49.5024 111.828 49.4339C111.727 49.3653 111.598 49.3311 111.44 49.3311Z" fill="#FF8032"/>
<path d="M115.394 48.8256C115.676 48.8256 115.917 48.8837 116.119 48.9998C116.321 49.1159 116.476 49.2806 116.585 49.4938C116.693 49.707 116.747 49.9621 116.747 50.2591V50.6189H114.637C114.645 50.9253 114.727 51.1614 114.883 51.327C115.041 51.4926 115.262 51.5754 115.545 51.5754C115.747 51.5754 115.928 51.5564 116.088 51.5183C116.25 51.4783 116.416 51.4203 116.588 51.3441V51.8895C116.43 51.9638 116.269 52.018 116.105 52.0523C115.941 52.0866 115.745 52.1037 115.517 52.1037C115.206 52.1037 114.933 52.0437 114.697 51.9238C114.463 51.802 114.279 51.6211 114.146 51.3813C114.015 51.1414 113.949 50.8435 113.949 50.4875C113.949 50.1334 114.009 49.8327 114.129 49.5852C114.249 49.3377 114.417 49.1493 114.634 49.0198C114.851 48.8904 115.105 48.8256 115.394 48.8256ZM115.394 49.3311C115.183 49.3311 115.011 49.3996 114.88 49.5366C114.751 49.6737 114.674 49.8745 114.652 50.1391H116.091C116.089 49.9811 116.062 49.8412 116.011 49.7194C115.961 49.5976 115.885 49.5024 115.782 49.4339C115.681 49.3653 115.552 49.3311 115.394 49.3311Z" fill="#FF8032"/>
<path d="M119.265 51.5612C119.353 51.5612 119.44 51.5535 119.525 51.5383C119.611 51.5212 119.689 51.5012 119.759 51.4783V51.9866C119.685 52.019 119.589 52.0466 119.471 52.0694C119.353 52.0923 119.23 52.1037 119.103 52.1037C118.924 52.1037 118.763 52.0742 118.62 52.0152C118.477 51.9543 118.364 51.8505 118.28 51.7039C118.196 51.5573 118.155 51.3546 118.155 51.0957V49.3967H117.723V49.0969L118.186 48.8599L118.406 48.1832H118.828V48.8856H119.734V49.3967H118.828V51.0872C118.828 51.2471 118.868 51.366 118.948 51.4441C119.028 51.5221 119.134 51.5612 119.265 51.5612Z" fill="#FF8032"/>
<path d="M39.4173 42.8267C36.8442 42.8267 34.5245 42.3198 32.4583 41.3062C30.431 40.2925 28.8325 38.7136 27.6629 36.5694C26.5323 34.3861 25.967 31.6376 25.967 28.3238V10.6045H37.0781V26.5109C37.0781 28.967 37.5265 30.7214 38.4232 31.774C39.3588 32.8267 40.6649 33.353 42.3413 33.353C43.4329 33.353 44.427 33.0996 45.3237 32.5928C46.2204 32.0859 46.9417 31.2867 47.4875 30.1951C48.0333 29.0645 48.3062 27.622 48.3062 25.8676V10.6045H61.698C52.5362 17.2517 51.1717 32.6513 60.9182 41.1308H48.5401L48.8325 33.353L50.8793 35.8676C49.7877 38.2068 48.2087 39.9612 46.1424 41.1308C44.0762 42.2614 41.8345 42.8267 39.4173 42.8267Z" fill="#2A4D9B"/>
<path d="M73.3549 54.1715C70.3139 54.1715 67.4094 53.8206 64.6414 53.1188C61.9124 52.4171 59.5732 51.384 57.6239 50.0194L61.659 42.2417C62.9845 43.2943 64.6219 44.113 66.5712 44.6978C68.5595 45.3216 70.4894 45.6335 72.3607 45.6335C75.3626 45.6335 77.5264 44.9707 78.8519 43.6452C80.1775 42.3586 80.8402 40.4678 80.8402 37.9727V34.23L81.425 25.3411L81.3665 16.3938L81.425 7.99219L91.9513 10.6043V36.5107C91.9513 42.5146 90.3334 46.959 87.0975 49.844C83.8617 52.729 79.2808 54.1715 73.3549 54.1715ZM71.425 40.6627C68.618 40.6627 66.0254 40.0389 63.6473 38.7914C61.3081 37.5048 59.4173 35.731 57.9748 33.4698C56.5713 31.1696 55.8695 28.46 55.8695 25.3411C55.8695 22.2222 56.5713 19.5322 57.9748 17.271C59.4173 14.9708 61.3081 13.1969 63.6473 11.9493C66.0254 10.7018 68.618 10.078 71.425 10.078C74.1151 10.078 76.4153 10.6238 78.3256 11.7154C80.2359 12.768 81.6784 14.425 82.6531 16.6862C83.6667 18.9474 84.1735 21.8324 84.1735 25.3411C84.1735 28.8499 83.6667 31.7349 82.6531 33.9961C81.6784 36.2573 80.2359 37.9337 78.3256 39.0253C76.4153 40.1169 74.1151 40.6627 71.425 40.6627ZM74.0566 31.8323C75.3821 31.8323 76.5517 31.5594 77.5654 31.0136C78.618 30.4678 79.4367 29.7076 80.0215 28.7329C80.6453 27.7583 80.9572 26.6277 80.9572 25.3411C80.9572 24.0546 80.6453 22.924 80.0215 21.9493C79.4367 20.9747 78.618 20.2339 77.5654 19.7271C76.5517 19.1813 75.3821 18.9084 74.0566 18.9084C72.7311 18.9084 71.542 19.1813 70.4894 19.7271C69.4367 20.2339 68.5985 20.9747 67.9747 21.9493C67.39 22.924 67.0976 24.0546 67.0976 25.3411C67.0976 26.6277 67.39 27.7583 67.9747 28.7329C68.5985 29.7076 69.4367 30.4678 70.4894 31.0136C71.542 31.5594 72.7311 31.8323 74.0566 31.8323Z" fill="white"/>
<path d="M93.6667 42.9432V23.3039V13.4842V10.7211L104.252 7.40723V20.0778L102.146 17.5632C103.316 15.3019 104.914 13.606 106.942 12.4754C108.969 11.3059 111.23 10.7211 113.725 10.7211C116.571 10.7211 119.066 11.4618 121.211 12.9433C123.394 14.3858 124.856 16.647 125.597 19.7269L121.971 18.9667C123.101 16.3936 124.797 14.3858 127.058 12.9433C129.359 11.4618 131.99 10.7211 134.953 10.7211C137.409 10.7211 139.593 11.2279 141.503 12.2415C143.452 13.2162 144.973 14.7366 146.064 16.8029C147.195 18.8692 147.76 21.5398 147.76 24.8146C147.76 24.8146 147.76 27.5768 147.76 29.3468C147.76 31.1167 147.76 32.109 147.76 33.8789C147.76 35.6488 147.76 36.6411 147.76 38.4111C147.76 40.181 147.76 42.9432 147.76 42.9432H136.649V26.6275C136.649 24.3663 136.22 22.7288 135.363 21.7152C134.505 20.6626 133.335 20.1362 131.854 20.1362C130.801 20.1362 129.846 20.3897 128.988 20.8965C128.131 21.4033 127.468 22.183 127 23.2357C126.532 24.2493 126.298 25.5748 126.298 27.2123V42.9432H115.187V26.6275C115.187 24.3663 114.758 22.7288 113.901 21.7152C113.082 20.6626 111.912 20.1362 110.392 20.1362C109.3 20.1362 108.326 20.3897 107.468 20.8965C106.649 21.4033 105.986 22.183 105.48 23.2357C105.012 24.2493 104.778 25.5748 104.778 27.2123V42.9432H93.6667Z" fill="white"/>
<path d="M163.199 33.3917C163.199 38.5593 158.224 42.7484 152.088 42.7484C145.951 42.7484 141.951 38.265 141.561 33.3917C141.074 30.2728 142.244 22.9629 152.088 22.9629C158.224 22.9629 163.199 28.2242 163.199 33.3917Z" fill="#FF8032"/>
<path d="M13.1015 40.9356V9.18127H0.528442V0H37.195V9.18127H24.6804V40.9356H13.1015Z" fill="white"/>
<path d="M163.121 41.5791V35.6727L162.36 34.2107V23.3335C162.36 21.5791 161.815 20.2341 160.723 19.2984C159.67 18.3238 157.975 17.8364 155.635 17.8364C154.115 17.8364 152.575 18.0899 151.015 18.5967C149.456 19.0645 149.476 19.3764 148.384 20.2341C147.309 16.1315 145.753 14.7151 143.803 12.9242C145.596 11.7546 147.234 10.9749 149.729 10.3511C152.263 9.68832 154.778 9.35693 157.273 9.35693C162.419 9.35693 166.396 10.546 169.203 12.9242C172.049 15.2634 173.472 18.9476 173.472 23.9768V41.5791H163.121ZM153.764 42.1054C151.23 42.1054 149.086 41.6766 147.331 40.8189C145.577 39.9612 144.232 38.7916 143.296 37.3101C142.4 35.8286 141.951 34.1717 141.951 32.3393C141.951 30.39 142.439 28.7136 143.413 27.3101C144.427 25.8676 145.967 24.776 148.033 24.0353C150.099 23.2555 152.77 22.8657 156.045 22.8657H163.53V28.6551H157.565C155.772 28.6551 154.505 28.9475 153.764 29.5323C153.062 30.1171 152.711 30.8969 152.711 31.8715C152.711 32.8462 153.082 33.6259 153.822 34.2107C154.563 34.7955 155.577 35.0879 156.863 35.0879C158.072 35.0879 159.164 34.7955 160.138 34.2107C161.152 33.5869 161.893 32.6512 162.36 31.4037L163.881 35.4972C163.296 37.6805 162.146 39.3374 160.431 40.468C158.754 41.5596 156.532 42.1054 153.764 42.1054Z" fill="#2A4D9B"/>
<path d="M120.933 47.8719L119.842 52.0466H119.094L118.397 49.5452C118.38 49.4843 118.361 49.412 118.34 49.3282C118.319 49.2444 118.298 49.1588 118.277 49.0712C118.258 48.9836 118.241 48.9037 118.226 48.8314C118.213 48.7571 118.203 48.7 118.197 48.66C118.194 48.7 118.185 48.7562 118.172 48.8285C118.158 48.9008 118.142 48.9808 118.123 49.0684C118.106 49.154 118.087 49.2397 118.066 49.3253C118.045 49.4091 118.026 49.4833 118.009 49.5481L117.324 52.0466H116.578L115.49 47.8719H116.179L116.781 50.319C116.8 50.3971 116.819 50.4818 116.838 50.5732C116.859 50.6626 116.878 50.7531 116.895 50.8444C116.914 50.9358 116.932 51.0253 116.947 51.1129C116.962 51.1985 116.974 51.2766 116.984 51.347C116.993 51.2747 117.006 51.1947 117.021 51.1071C117.036 51.0177 117.052 50.9272 117.07 50.8359C117.089 50.7426 117.108 50.6531 117.127 50.5675C117.148 50.4818 117.169 50.4047 117.189 50.3362L117.869 47.8719H118.537L119.231 50.3447C119.252 50.4152 119.272 50.4942 119.291 50.5817C119.312 50.6693 119.332 50.7588 119.351 50.8502C119.37 50.9415 119.387 51.03 119.402 51.1157C119.418 51.2014 119.43 51.2785 119.44 51.347C119.453 51.2537 119.47 51.1471 119.491 51.0272C119.512 50.9073 119.536 50.7854 119.562 50.6617C119.589 50.538 119.616 50.4237 119.642 50.319L120.242 47.8719H120.933Z" fill="#2A4D9B"/>
<path d="M122.711 47.6035V48.72C122.711 48.8361 122.708 48.9494 122.7 49.0598C122.694 49.1702 122.688 49.2559 122.68 49.3168H122.717C122.784 49.2064 122.866 49.1159 122.963 49.0455C123.06 48.9732 123.168 48.9189 123.288 48.8828C123.41 48.8466 123.539 48.8285 123.676 48.8285C123.918 48.8285 124.124 48.8694 124.293 48.9513C124.463 49.0312 124.592 49.1559 124.682 49.3253C124.773 49.4948 124.819 49.7146 124.819 49.985V52.0466H124.148V50.1106C124.148 49.865 124.097 49.6813 123.996 49.5595C123.895 49.4358 123.739 49.3739 123.528 49.3739C123.324 49.3739 123.162 49.4167 123.043 49.5024C122.925 49.5861 122.84 49.7108 122.788 49.8764C122.737 50.0402 122.711 50.24 122.711 50.4761V52.0466H122.04V47.6035H122.711Z" fill="#2A4D9B"/>
<path d="M127.602 48.8256C127.884 48.8256 128.126 48.8837 128.327 48.9998C128.529 49.1159 128.684 49.2806 128.793 49.4938C128.901 49.707 128.956 49.9621 128.956 50.2591V50.6189H126.845C126.853 50.9253 126.935 51.1614 127.091 51.327C127.249 51.4926 127.47 51.5754 127.753 51.5754C127.955 51.5754 128.136 51.5564 128.296 51.5183C128.458 51.4783 128.624 51.4203 128.796 51.3441V51.8895C128.638 51.9638 128.477 52.018 128.313 52.0523C128.149 52.0866 127.953 52.1037 127.725 52.1037C127.415 52.1037 127.141 52.0437 126.905 51.9238C126.671 51.802 126.488 51.6211 126.354 51.3813C126.223 51.1414 126.157 50.8435 126.157 50.4875C126.157 50.1334 126.217 49.8327 126.337 49.5852C126.457 49.3377 126.626 49.1493 126.843 49.0198C127.06 48.8904 127.313 48.8256 127.602 48.8256ZM127.602 49.3311C127.391 49.3311 127.219 49.3996 127.088 49.5366C126.959 49.6737 126.883 49.8745 126.86 50.1391H128.299C128.297 49.9811 128.27 49.8412 128.219 49.7194C128.169 49.5976 128.093 49.5024 127.99 49.4339C127.89 49.3653 127.76 49.3311 127.602 49.3311Z" fill="#2A4D9B"/>
<path d="M131.899 48.8256C131.952 48.8256 132.01 48.8285 132.073 48.8342C132.136 48.8399 132.19 48.8475 132.236 48.8571L132.173 49.4853C132.133 49.4738 132.084 49.4653 132.025 49.4596C131.968 49.4538 131.916 49.451 131.87 49.451C131.75 49.451 131.636 49.471 131.528 49.5109C131.419 49.549 131.323 49.608 131.239 49.688C131.156 49.766 131.09 49.8641 131.042 49.9821C130.995 50.1001 130.971 50.2372 130.971 50.3933V52.0466H130.297V48.8856H130.822L130.914 49.4424H130.945C131.008 49.3301 131.086 49.2273 131.179 49.134C131.273 49.0408 131.379 48.9665 131.499 48.9113C131.621 48.8542 131.754 48.8256 131.899 48.8256Z" fill="#2A4D9B"/>
<path d="M134.665 48.8256C134.947 48.8256 135.189 48.8837 135.391 48.9998C135.592 49.1159 135.748 49.2806 135.856 49.4938C135.965 49.707 136.019 49.9621 136.019 50.2591V50.6189H133.909C133.916 50.9253 133.998 51.1614 134.154 51.327C134.312 51.4926 134.533 51.5754 134.817 51.5754C135.018 51.5754 135.199 51.5564 135.359 51.5183C135.521 51.4783 135.688 51.4203 135.859 51.3441V51.8895C135.701 51.9638 135.54 52.018 135.376 52.0523C135.213 52.0866 135.017 52.1037 134.788 52.1037C134.478 52.1037 134.205 52.0437 133.969 51.9238C133.734 51.802 133.551 51.6211 133.418 51.3813C133.286 51.1414 133.22 50.8435 133.22 50.4875C133.22 50.1334 133.28 49.8327 133.4 49.5852C133.52 49.3377 133.689 49.1493 133.906 49.0198C134.123 48.8904 134.376 48.8256 134.665 48.8256ZM134.665 49.3311C134.454 49.3311 134.283 49.3996 134.151 49.5366C134.022 49.6737 133.946 49.8745 133.923 50.1391H135.362C135.36 49.9811 135.334 49.8412 135.282 49.7194C135.233 49.5976 135.156 49.5024 135.054 49.4339C134.953 49.3653 134.823 49.3311 134.665 49.3311Z" fill="#2A4D9B"/>
<path d="M140.723 48.8256C141.005 48.8256 141.247 48.8837 141.449 48.9998C141.65 49.1159 141.806 49.2806 141.914 49.4938C142.023 49.707 142.077 49.9621 142.077 50.2591V50.6189H139.967C139.974 50.9253 140.056 51.1614 140.212 51.327C140.37 51.4926 140.591 51.5754 140.875 51.5754C141.077 51.5754 141.257 51.5564 141.417 51.5183C141.579 51.4783 141.746 51.4203 141.917 51.3441V51.8895C141.759 51.9638 141.598 52.018 141.434 52.0523C141.271 52.0866 141.075 52.1037 140.846 52.1037C140.536 52.1037 140.263 52.0437 140.027 51.9238C139.793 51.802 139.609 51.6211 139.476 51.3813C139.344 51.1414 139.279 50.8435 139.279 50.4875C139.279 50.1334 139.339 49.8327 139.458 49.5852C139.578 49.3377 139.747 49.1493 139.964 49.0198C140.181 48.8904 140.434 48.8256 140.723 48.8256ZM140.723 49.3311C140.512 49.3311 140.341 49.3996 140.209 49.5366C140.08 49.6737 140.004 49.8745 139.981 50.1391H141.42C141.418 49.9811 141.392 49.8412 141.34 49.7194C141.291 49.5976 141.215 49.5024 141.112 49.4339C141.011 49.3653 140.881 49.3311 140.723 49.3311Z" fill="#2A4D9B"/>
<path d="M145.066 48.8256C145.422 48.8256 145.699 48.918 145.897 49.1026C146.097 49.2854 146.197 49.5795 146.197 49.985V52.0466H145.526V50.1106C145.526 49.865 145.475 49.6813 145.374 49.5595C145.273 49.4358 145.117 49.3739 144.906 49.3739C144.6 49.3739 144.386 49.4681 144.266 49.6566C144.148 49.845 144.089 50.1182 144.089 50.4761V52.0466H143.418V48.8856H143.941L144.035 49.3139H144.072C144.141 49.2035 144.226 49.1131 144.326 49.0427C144.429 48.9703 144.543 48.9161 144.669 48.8799C144.797 48.8437 144.929 48.8256 145.066 48.8256Z" fill="#2A4D9B"/>
<path d="M148.783 52.1037C148.406 52.1037 148.104 51.9666 147.875 51.6925C147.649 51.4165 147.535 51.0101 147.535 50.4732C147.535 49.9307 147.651 49.5205 147.881 49.2425C148.113 48.9646 148.419 48.8256 148.797 48.8256C148.957 48.8256 149.097 48.8475 149.217 48.8913C149.337 48.9332 149.44 48.9903 149.526 49.0626C149.613 49.135 149.687 49.2159 149.748 49.3054H149.78C149.77 49.2463 149.759 49.1616 149.745 49.0512C149.734 48.9389 149.728 48.8352 149.728 48.74V47.6035H150.402V52.0466H149.877L149.757 51.6154H149.728C149.671 51.7068 149.599 51.7896 149.511 51.8638C149.426 51.9362 149.323 51.9942 149.203 52.038C149.085 52.0818 148.945 52.1037 148.783 52.1037ZM148.972 51.5583C149.259 51.5583 149.462 51.4755 149.58 51.3099C149.698 51.1443 149.759 50.8958 149.763 50.5646V50.4761C149.763 50.122 149.706 49.8507 149.591 49.6623C149.477 49.4719 149.269 49.3767 148.966 49.3767C148.724 49.3767 148.54 49.4748 148.412 49.6709C148.286 49.865 148.224 50.1363 148.224 50.4847C148.224 50.833 148.286 51.0995 148.412 51.2842C148.54 51.4669 148.726 51.5583 148.972 51.5583Z" fill="#2A4D9B"/>
<path d="M154.074 51.1443C154.074 51.3518 154.023 51.5269 153.922 51.6697C153.822 51.8124 153.674 51.9209 153.48 51.9952C153.288 52.0675 153.052 52.1037 152.772 52.1037C152.551 52.1037 152.36 52.0875 152.201 52.0551C152.043 52.0247 151.893 51.9771 151.752 51.9124V51.3327C151.903 51.4032 152.071 51.4641 152.258 51.5155C152.446 51.5669 152.624 51.5926 152.792 51.5926C153.012 51.5926 153.171 51.5583 153.269 51.4898C153.366 51.4193 153.414 51.3261 153.414 51.2099C153.414 51.1414 153.394 51.0805 153.354 51.0272C153.316 50.972 153.244 50.9158 153.137 50.8587C153.032 50.7997 152.878 50.7293 152.675 50.6474C152.475 50.5675 152.306 50.4875 152.169 50.4076C152.032 50.3276 151.928 50.2315 151.858 50.1192C151.788 50.0049 151.752 49.8593 151.752 49.6823C151.752 49.4024 151.863 49.1902 152.084 49.0455C152.306 48.8989 152.6 48.8256 152.966 48.8256C153.16 48.8256 153.343 48.8456 153.514 48.8856C153.687 48.9237 153.857 48.9798 154.022 49.0541L153.811 49.5595C153.668 49.4967 153.525 49.4453 153.38 49.4053C153.237 49.3634 153.091 49.3425 152.943 49.3425C152.77 49.3425 152.637 49.3691 152.546 49.4224C152.457 49.4757 152.412 49.5519 152.412 49.6509C152.412 49.7251 152.434 49.7879 152.478 49.8393C152.521 49.8907 152.597 49.9421 152.703 49.9935C152.812 50.0449 152.962 50.1087 153.154 50.1848C153.343 50.2572 153.506 50.3333 153.643 50.4133C153.782 50.4913 153.888 50.5875 153.962 50.7017C154.037 50.8159 154.074 50.9634 154.074 51.1443Z" fill="#2A4D9B"/>
<path d="M161.06 48.8256C161.414 48.8256 161.68 48.917 161.859 49.0998C162.04 49.2825 162.131 49.5757 162.131 49.9792V52.0466H161.46V50.0992C161.46 49.8593 161.413 49.6785 161.32 49.5566C161.226 49.4348 161.085 49.3739 160.894 49.3739C160.628 49.3739 160.435 49.4596 160.317 49.6309C160.201 49.8003 160.143 50.0468 160.143 50.3704V52.0466H159.472V50.0992C159.472 49.9393 159.451 49.806 159.409 49.6994C159.369 49.5909 159.308 49.51 159.224 49.4567C159.14 49.4015 159.034 49.3739 158.907 49.3739C158.722 49.3739 158.575 49.4158 158.464 49.4995C158.356 49.5833 158.278 49.707 158.23 49.8707C158.183 50.0325 158.159 50.2315 158.159 50.4675V52.0466H157.488V48.8856H158.01L158.104 49.3111H158.142C158.206 49.2007 158.286 49.1102 158.381 49.0398C158.479 48.9675 158.586 48.9142 158.704 48.8799C158.822 48.8437 158.945 48.8256 159.072 48.8256C159.309 48.8256 159.507 48.8675 159.669 48.9513C159.831 49.0331 159.952 49.1588 160.032 49.3282H160.083C160.182 49.1569 160.32 49.0303 160.497 48.9484C160.674 48.8666 160.862 48.8256 161.06 48.8256Z" fill="#2A4D9B"/>
<path d="M164.911 48.8256C165.193 48.8256 165.435 48.8837 165.637 48.9998C165.838 49.1159 165.994 49.2806 166.102 49.4938C166.211 49.707 166.265 49.9621 166.265 50.2591V50.6189H164.155C164.162 50.9253 164.244 51.1614 164.4 51.327C164.558 51.4926 164.779 51.5754 165.063 51.5754C165.264 51.5754 165.445 51.5564 165.605 51.5183C165.767 51.4783 165.934 51.4203 166.105 51.3441V51.8895C165.947 51.9638 165.786 52.018 165.622 52.0523C165.459 52.0866 165.263 52.1037 165.034 52.1037C164.724 52.1037 164.451 52.0437 164.215 51.9238C163.98 51.802 163.797 51.6211 163.663 51.3813C163.532 51.1414 163.466 50.8435 163.466 50.4875C163.466 50.1334 163.526 49.8327 163.646 49.5852C163.766 49.3377 163.935 49.1493 164.152 49.0198C164.369 48.8904 164.622 48.8256 164.911 48.8256ZM164.911 49.3311C164.7 49.3311 164.529 49.3996 164.397 49.5366C164.268 49.6737 164.192 49.8745 164.169 50.1391H165.608C165.606 49.9811 165.579 49.8412 165.528 49.7194C165.479 49.5976 165.402 49.5024 165.3 49.4339C165.199 49.3653 165.069 49.3311 164.911 49.3311Z" fill="#2A4D9B"/>
<path d="M168.866 48.8256C169.147 48.8256 169.389 48.8837 169.591 48.9998C169.793 49.1159 169.948 49.2806 170.056 49.4938C170.165 49.707 170.219 49.9621 170.219 50.2591V50.6189H168.109C168.116 50.9253 168.198 51.1614 168.354 51.327C168.512 51.4926 168.733 51.5754 169.017 51.5754C169.219 51.5754 169.399 51.5564 169.559 51.5183C169.721 51.4783 169.888 51.4203 170.059 51.3441V51.8895C169.901 51.9638 169.74 52.018 169.577 52.0523C169.413 52.0866 169.217 52.1037 168.988 52.1037C168.678 52.1037 168.405 52.0437 168.169 51.9238C167.935 51.802 167.751 51.6211 167.618 51.3813C167.486 51.1414 167.421 50.8435 167.421 50.4875C167.421 50.1334 167.481 49.8327 167.601 49.5852C167.72 49.3377 167.889 49.1493 168.106 49.0198C168.323 48.8904 168.576 48.8256 168.866 48.8256ZM168.866 49.3311C168.654 49.3311 168.483 49.3996 168.352 49.5366C168.222 49.6737 168.146 49.8745 168.123 50.1391H169.562C169.56 49.9811 169.534 49.8412 169.482 49.7194C169.433 49.5976 169.357 49.5024 169.254 49.4339C169.153 49.3653 169.024 49.3311 168.866 49.3311Z" fill="#2A4D9B"/>
<path d="M172.737 51.5612C172.824 51.5612 172.911 51.5535 172.997 51.5383C173.082 51.5212 173.16 51.5012 173.231 51.4783V51.9866C173.157 52.019 173.061 52.0466 172.943 52.0694C172.824 52.0923 172.702 52.1037 172.574 52.1037C172.395 52.1037 172.234 52.0742 172.092 52.0152C171.949 51.9543 171.836 51.8505 171.752 51.7039C171.668 51.5573 171.626 51.3546 171.626 51.0957V49.3967H171.195V49.0969L171.658 48.8599L171.877 48.1832H172.3V48.8856H173.205V49.3967H172.3V51.0872C172.3 51.2471 172.34 51.366 172.42 51.4441C172.5 51.5221 172.606 51.5612 172.737 51.5612Z" fill="#2A4D9B"/>
</svg>
